<svg xmlns="http://www.w3.org/2000/svg" width="384pt" height="384pt" viewBox="0 0 384 384" version="1.1" class="iconadda">
<g>
<g id="No_Internet_free_icon_2_EPm2mug-0"><path style="fill:none;stroke-width:30;stroke-linecap:butt;stroke-linejoin:miter;stroke:#FFFFFF;stroke-opacity:1;stroke-miterlimit:10;" d="M 495.001526 405.000305 C 495.001526 454.706421 454.706421 495.001526 405.000305 495.001526 C 355.294189 495.001526 314.999084 454.706421 314.999084 405.000305 C 314.999084 355.294189 355.294189 314.999084 405.000305 314.999084 C 454.706421 314.999084 495.001526 355.294189 495.001526 405.000305 " transform="matrix(0.752941,0,0,0.752941,0,0)" />
</g><g id="No_Internet_free_icon_2_EPm2mug-1"><path style="fill:none;stroke-width:30;stroke-linecap:butt;stroke-linejoin:miter;stroke:#FFFFFF;stroke-opacity:1;stroke-miterlimit:10;" d="M 341.359253 341.359253 L 468.641357 468.641357 M 80.709534 90.001221 C 175.462952 190.036011 334.578552 189.989319 429.290466 90.001221 M 329.068909 356.648254 C 241.578674 328.259583 144.770813 352.311096 80.709534 419.998779 " transform="matrix(0.752941,0,0,0.752941,0,0)" />
</g><g id="No_Internet_free_icon_2_EPm2mug-2"><path style="fill:none;stroke-width:30;stroke-linecap:butt;stroke-linejoin:miter;stroke:#FFFFFF;stroke-opacity:1;stroke-miterlimit:10;" d="M 370.261536 321.961365 C 373.353577 300.711365 375.003357 278.242188 375.003357 255 C 375.003357 122.452087 321.271362 14.998474 255.005188 14.998474 C 188.728638 14.998474 135.001831 122.452087 135.001831 255 C 135.001831 296.420898 140.252075 335.387878 149.481506 369.389954 C 169.797668 444.211121 209.439087 495.001526 255 495.001526 C 255.389099 495.001526 255.788574 495.001526 256.177673 494.99115 M 14.998474 255 L 494.996338 255 M 255 14.998474 L 255 494.996338 " transform="matrix(0.752941,0,0,0.752941,0,0)" />
</g><g id="No_Internet_free_icon_2_EPm2mug-3"><path style="fill:none;stroke-width:30;stroke-linecap:butt;stroke-linejoin:miter;stroke:#FFFFFF;stroke-opacity:1;stroke-miterlimit:10;" d="M 475.738525 349.348755 C 488.137817 320.389404 495.001526 288.49884 495.001526 255 C 495.001526 122.452087 387.553101 14.998474 255 14.998474 C 122.452087 14.998474 14.998474 122.452087 14.998474 255 C 14.998474 318.921204 39.978638 377.000732 80.709534 419.998779 C 152.443848 495.733032 260.628967 513.7146 349.348755 475.738525 " transform="matrix(0.752941,0,0,0.752941,0,0)" />
</g></g>
</svg>