<svg xmlns="http://www.w3.org/2000/svg" width="384pt" height="384pt" viewBox="0 0 384 384" version="1.1" class="iconadda">
<g>
<g id="Rewards_free_icon_QR29MUK-0"><path style=" stroke:none;fill-rule:nonzero;fill:#FFFFFF;fill-opacity:1;" d="M 348.75 269.65625 C 339.828125 268.304688 330.941406 270.53125 323.710938 275.917969 L 270.492188 315.574219 L 253.210938 315.574219 L 253.207031 315.578125 C 254.628906 311.738281 255.351562 307.679688 255.347656 303.585938 C 255.347656 294.386719 251.765625 285.734375 245.257812 279.226562 L 179.78125 213.75 L 75 213.75 L 75 191.25 L 0 191.25 L 0 343.5 L 75 343.5 L 75 326.355469 L 159.035156 384 L 290.695312 384 L 363.734375 329.691406 C 378.425781 318.769531 381.601562 297.84375 370.816406 283.050781 C 365.503906 275.765625 357.667969 271.007812 348.75 269.660156 Z M 52.5 321 L 22.5 321 L 22.5 213.75 L 52.5 213.75 Z M 350.304688 311.632812 L 283.246094 361.5 L 166.011719 361.5 L 75 299.074219 L 75 236.25 L 170.460938 236.25 L 229.347656 295.136719 C 231.605469 297.394531 232.847656 300.394531 232.847656 303.585938 C 232.847656 306.777344 231.605469 309.777344 229.351562 312.03125 C 224.691406 316.6875 217.113281 316.6875 212.460938 312.035156 L 163.253906 262.828125 L 147.34375 278.738281 L 196.550781 327.945312 C 203.214844 334.609375 211.953125 337.960938 220.714844 338.007812 L 220.714844 338.078125 L 277.949219 338.078125 L 337.152344 293.964844 C 339.507812 292.199219 342.476562 291.457031 345.382812 291.90625 C 348.292969 292.335938 350.910156 293.925781 352.636719 296.308594 C 356.179688 301.167969 355.136719 308.046875 350.308594 311.636719 Z M 281.25 205.5 C 308.695312 205.5 334.5 194.8125 353.90625 175.40625 C 373.3125 156 384 130.195312 384 102.75 C 384 75.304688 373.3125 49.5 353.90625 30.09375 C 334.5 10.691406 308.695312 0 281.25 0 C 253.804688 0 228 10.6875 208.59375 30.09375 C 189.1875 49.5 178.5 75.304688 178.5 102.75 C 178.5 130.195312 189.1875 156 208.59375 175.40625 C 228 194.8125 253.804688 205.5 281.25 205.5 Z M 224.503906 46.003906 C 239.664062 30.847656 259.8125 22.5 281.25 22.5 C 302.6875 22.5 322.835938 30.847656 337.996094 46.003906 C 353.152344 61.164062 361.5 81.3125 361.5 102.75 C 361.5 124.1875 353.152344 144.335938 337.996094 159.496094 C 322.835938 174.652344 302.6875 183 281.25 183 C 259.8125 183 239.664062 174.652344 224.503906 159.496094 C 209.347656 144.335938 201 124.1875 201 102.75 C 201 81.3125 209.347656 61.164062 224.503906 46.003906 Z M 224.503906 46.003906 " />
</g><g id="Rewards_free_icon_QR29MUK-1"><path style=" stroke:none;fill-rule:nonzero;fill:#FFFFFF;fill-opacity:1;" d="M 246.957031 149.984375 L 281.25 140.460938 L 315.542969 149.984375 L 317.082031 114.425781 L 336.738281 84.753906 L 303.394531 72.304688 L 281.25 44.441406 L 259.105469 72.304688 L 225.761719 84.753906 L 245.417969 114.425781 Z M 272.832031 91.195312 L 281.25 80.601562 L 289.667969 91.195312 L 302.34375 95.929688 L 294.871094 107.210938 L 294.285156 120.730469 L 281.25 117.109375 L 268.210938 120.730469 L 267.625 107.210938 L 260.152344 95.929688 Z M 272.832031 91.195312 " />
</g></g>
</svg>