<svg xmlns="http://www.w3.org/2000/svg" width="384pt" height="384pt" viewBox="0 0 384 384" version="1.1" class="iconadda">
<g>
<g id="Sustainability_free_icon_r6tPbte-0"><path style=" stroke:none;fill-rule:nonzero;fill:#FFFFFF;fill-opacity:1;" d="M 293.25 112.5 L 359.25 112.5 L 359.25 45 L 336 45 L 336 66.769531 C 300.003906 25.101562 247.847656 0 191.835938 0 C 175.664062 0 159.554688 2.019531 144 6.019531 L 149.625 27.816406 C 163.3125 24.289062 177.554688 22.5 191.835938 22.5 C 245.066406 22.5 295.023438 47.984375 326.6875 90 L 293.25 90 Z M 90 271.5 L 24 271.5 L 24 339 L 47.25 339 L 47.25 317.152344 C 83.246094 358.863281 135.78125 384 191.835938 384 C 208.007812 384 224.445312 381.980469 240 377.980469 L 234.375 356.183594 C 220.6875 359.710938 206.117188 361.5 191.835938 361.5 C 138.617188 361.5 88.648438 336.019531 56.976562 294 L 90 294 Z M 361.5 192 C 361.5 245.226562 336.015625 295.191406 294 326.847656 L 294 294 L 271.5 294 L 271.5 359.25 L 339 359.25 L 339 336.75 L 317.292969 336.75 C 358.914062 300.757812 384 247.988281 384 192 C 384 175.851562 381.980469 160.316406 377.980469 144.75 L 356.183594 150.351562 C 359.722656 164.085938 361.5 177.738281 361.5 192 Z M 292.5 147 L 292.5 135.75 L 258.75 135.75 C 233.9375 135.75 212.035156 147.515625 197.585938 165.511719 C 186.648438 135.148438 157.832031 113.25 123.75 113.25 L 90 113.25 L 90 124.5 C 90 167.917969 125.332031 203.25 168.75 203.25 L 180 203.25 L 180.03125 270.75 L 157.5 270.75 L 157.5 293.25 L 225 293.25 L 225 270.75 L 202.5 270.75 L 202.480469 225.75 L 213.75 225.75 C 257.167969 225.75 292.5 190.417969 292.5 147 Z M 292.5 147 " />
</g><g id="Sustainability_free_icon_r6tPbte-1"><path style=" stroke:none;fill-rule:nonzero;fill:#FFFFFF;fill-opacity:1;" d="M 27.816406 234.398438 C 24.28125 220.664062 22.5 206.261719 22.5 192 C 22.5 138.769531 47.984375 88.796875 90 57.132812 L 90 90.75 L 112.5 90.75 L 112.5 24.75 L 45 24.75 L 45 47.25 L 66.875 47.25 C 25.144531 83.246094 0 135.9375 0 192 C 0 208.148438 2.019531 224.433594 6.019531 240 Z M 27.816406 234.398438 " />
</g></g>
</svg>