<svg xmlns="http://www.w3.org/2000/svg" width="384pt" height="384pt" viewBox="0 0 384 384" version="1.1" class="iconadda">
<g>
<g id="Testimonial_free_icon_1_snpBfNq-0"><path style="fill:none;stroke-width:30;stroke-linecap:butt;stroke-linejoin:miter;stroke:#FFFFFF;stroke-opacity:1;stroke-miterlimit:10;" d="M 0.000585705 0.000585705 C 0.000585705 -33.13493 -26.864078 -59.999594 -59.999594 -59.999594 C -93.135109 -59.999594 -119.999773 -33.13493 -119.999773 0.000585705 C -119.999773 33.136101 -93.135109 60.000765 -59.999594 60.000765 C -26.864078 60.000765 0.000585705 33.136101 0.000585705 0.000585705 Z M 0.000585705 0.000585705 " transform="matrix(0.749998,0,0,-0.749998,146.999561,237.000439)" />
</g><g id="Testimonial_free_icon_1_snpBfNq-1"><path style="fill:none;stroke-width:30;stroke-linecap:butt;stroke-linejoin:miter;stroke:#FFFFFF;stroke-opacity:1;stroke-miterlimit:10;" d="M 0.000406407 0.000316759 C -49.708075 0.000316759 -89.999863 -41.291473 -89.999863 -90.999955 L 90.000675 -90.999955 C 90.000675 -41.291473 49.70368 0.000316759 0.000406407 0.000316759 Z M 0.000406407 0.000316759 " transform="matrix(0.749998,0,0,-0.749998,101.999695,304.500238)" />
</g><g id="Testimonial_free_icon_1_snpBfNq-2"><path style="fill:none;stroke-width:30;stroke-linecap:butt;stroke-linejoin:miter;stroke:#FFFFFF;stroke-opacity:1;stroke-miterlimit:10;" d="M 0.000585705 0.00148518 L 0.000585705 -180.999056 L 60.000765 -180.999056 L 60.000765 -225.99919 L 120.000944 -180.999056 L 270.001393 -180.999056 L 270.001393 0.00148518 Z M 0.000585705 0.00148518 " transform="matrix(0.749998,0,0,-0.749998,146.999561,11.251114)" />
</g><g id="Testimonial_free_icon_1_snpBfNq-3"><path style="fill:none;stroke-width:30;stroke-linecap:butt;stroke-linejoin:miter;stroke:#FFFFFF;stroke-opacity:1;stroke-miterlimit:10;" d="M 0.000809826 0.00125807 L 45.000944 -44.998876 L 120.001168 30.001348 " transform="matrix(0.749998,0,0,-0.749998,203.249393,68.250944)" />
</g></g>
</svg>